<?xml version="1.0" encoding="UTF-8" standalone="no"?>
<svg
   xmlns:dc="http://purl.org/dc/elements/1.1/"
   xmlns:cc="http://creativecommons.org/ns#"
   xmlns:rdf="http://www.w3.org/1999/02/22-rdf-syntax-ns#"
   xmlns:svg="http://www.w3.org/2000/svg"
   xmlns="http://www.w3.org/2000/svg"
   id="svg8"
   version="1.1"
   viewBox="0 0 456.00002 451.02694"
   height="451.02695mm"
   width="456mm">
  <defs
     id="defs2" />
  <metadata
     id="metadata5">
    <rdf:RDF>
      <cc:Work
         rdf:about="">
        <dc:format>image/svg+xml</dc:format>
        <dc:type
           rdf:resource="http://purl.org/dc/dcmitype/StillImage" />
        <dc:title></dc:title>
      </cc:Work>
    </rdf:RDF>
  </metadata>
  <g
     transform="translate(319.5569,232.68586)"
     id="layer1">
    <g
       transform="matrix(1.8648996,0,0,1.8648996,-451.05941,-475.02747)"
       id="g21">
      <path
         id="path25"
         d="m 289.20848,371.40916 2.38125,-0.39018 1.98437,-0.54187 1.98438,-0.54187 3.175,-1.5691 3.175,-1.56909 2.16258,-1.73356 2.16258,-1.73356 1.43378,-1.6512 1.43378,-1.65121 1.13342,-1.68835 1.13342,-1.68835 1.04311,-2.22595 1.04311,-2.22594 0.7094,-2.568 0.7094,-2.56799 0.0793,-93.92708 0.0793,-93.92708 -0.30494,-2.51133 -0.30494,-2.51133 -0.47475,-1.85429 -0.47475,-1.8543 -1.03134,-2.38125 -1.03133,-2.38125 -1.29509,-1.98437 -1.29509,-1.98438 -2.66175,-2.66175 -2.66175,-2.66176 -1.97715,-1.28528 -1.97714,-1.28529 -1.85932,-0.85784 -1.85931,-0.85785 -1.71979,-0.55368 -1.71979,-0.55368 -1.85209,-0.45574 -1.85208,-0.45573 -94.19166,-0.0844 -94.19166,-0.0844 -2.55327,0.28829 -2.553266,0.28829 -2.473817,0.66002 -2.473817,0.66003 -2.910416,1.40399 -2.910417,1.40399 -2.116666,1.58027 -2.116667,1.58027 -1.789816,1.93635 -1.789815,1.93634 -1.196372,1.7996 -1.196371,1.7996 -1.0348,2.20821 -1.034799,2.2082 -0.741513,2.63653 -0.741513,2.63653 -0.07404,94.72083 -0.07404,94.72082 0.407435,2.60714 0.407435,2.60713 0.67788,2.01937 0.677879,2.01937 1.088141,2.09154 1.088141,2.09154 1.189619,1.61633 1.18962,1.61633 1.34117,1.43043 1.341171,1.43042 1.994029,1.48726 1.99403,1.48727 2.140566,1.11364 2.140564,1.11365 2.770166,0.92696 2.770166,0.92695 2.223363,0.37259 2.223365,0.3726 94.323955,0.0259 94.32396,0.0259 2.38125,-0.39019 z m -139.76773,-56.69153 0.0677,-21.10052 4.43177,-0.0198 4.43178,-0.0198 v 16.7547 16.7547 h 11.24479 11.24479 v 4.36562 4.36563 H 165.11729 149.373 l 0.0677,-21.10052 z m 36.44794,-0.0661 v -21.16667 h 4.49792 4.49791 v 21.16667 21.16667 h -4.49791 -4.49792 z m 15.34583,0 v -21.16667 h 13.8288 13.82879 l 2.97225,2.98071 2.97224,2.9807 v 5.28229 5.28229 l -2.30958,2.32034 -2.30959,2.32034 2.30959,2.32034 2.30958,2.32034 v 5.29074 5.29075 l -2.9807,2.97225 -2.9807,2.97225 h -13.82034 -13.82034 z m 24.87084,9.07903 v -3.35638 l -0.57529,-0.61237 -0.57529,-0.61236 h -7.22992 -7.22992 v 3.96875 3.96875 h 7.80521 7.80521 z m -0.71096,-14.05445 0.71096,-0.74208 -0.002,-1.57302 -0.002,-1.57302 -0.16867,-1.78594 -0.16867,-1.78594 h -7.63465 -7.63466 v 4.10105 4.10104 h 7.09425 7.09425 l 0.71095,-0.74209 z m -135.284683,-50.61488 -1.88e-4,-21.06217 12.348261,-0.0559 12.34826,-0.0559 3.65903,3.65202 3.65903,3.65203 -0.0121,13.365 -0.0121,13.365 -3.93838,4.10105 -3.93838,4.10104 H 102.1665 90.109894 l -1.88e-4,-21.06218 z m 23.547723,0.16009 V 246.9182 h -7.54062 -7.540625 v 12.15821 12.15821 l 1.653645,0.0939 1.65365,0.0939 5.88698,0.051 5.88697,0.051 z m 79.97533,20.18867 -0.9972,-0.83836 -1.78594,-1.73056 -1.78594,-1.73055 v -16.15515 -16.15515 l 2.626,-2.43893 2.626,-2.43892 h 10.57983 10.57983 l 2.53688,2.68922 2.53688,2.68923 v 15.58705 15.58706 l -2.69214,2.86885 -2.69213,2.86885 -10.26743,0.0179 -10.26743,0.0179 -0.99721,-0.83836 z m 18.58577,-16.28606 -0.0773,-8.13594 -0.0294,-4.03489 -0.0294,-4.0349 h -7.27604 -7.27604 v 12.17083 12.17084 h 7.38275 7.38276 z m 35.05348,0.46302 V 246.9182 h -7.40833 -7.40833 v 16.53646 16.53646 h -4.23334 -4.23333 v -18.4989 -18.4989 l 2.71198,-2.53344 2.71198,-2.53343 10.45577,-0.002 10.45576,-0.002 2.70726,2.71649 2.70725,2.7165 v 18.45017 18.45017 h -4.23334 -4.23333 v -16.66875 z m 16.74786,15.1165 -1.7989,-1.56287 -1.00014,-1.04143 -1.00014,-1.04142 0.002,-16.12029 0.002,-16.12028 2.58579,-2.43908 2.58579,-2.43908 11.24952,-0.008 11.2495,-0.008 2.70726,2.71649 2.70725,2.7165 v 15.61041 15.61041 l -2.84427,2.83081 -2.84427,2.8308 -10.9011,0.0143 -10.9011,0.0143 z m 21.08756,-19.61442 V 246.9182 h -8.33438 -8.33437 v 12.17083 12.17084 h 8.33437 8.33438 z m -141.55208,2.70725 v -18.19482 l 2.73136,-2.72207 2.73136,-2.72206 5.66916,-0.14578 5.66916,-0.14578 2.19675,2.23065 2.19675,2.23065 2.14966,-2.20235 2.14966,-2.20235 h 5.36367 5.36366 l 2.92267,2.97656 2.92267,2.97656 0.001,18.05781 10e-4,18.05782 h -4.10104 -4.10104 V 263.45466 246.9182 h -4.23334 -4.23333 v 16.53646 16.53646 h -4.36562 -4.36563 V 263.5869 247.18273 h -4.10104 -4.10104 v 16.40417 16.40417 h -4.23334 -4.23333 v -18.19484 z m -17.72708,-1.64891 v -3.96875 h 7.01145 7.01146 v 3.96875 3.96875 h -7.01146 -7.01145 z m 33.3375,-36.21948 V 222.898 l -4.60654,-0.19191 -4.60654,-0.19191 -14.44346,0.11804 -14.44346,0.11803 2.6e-4,-33.22592 2.6e-4,-33.22592 h 3.04249 3.0425 l -5e-5,30.24273 -5e-5,30.24273 13.42761,-0.0748 13.4276,-0.0748 3.63929,-0.0921 3.63928,-0.0921 -2.02856,-2.22843 -2.02856,-2.22844 h -12.92166 -12.92166 v -22.9757 -22.97565 l -0.17496,-7.9806 -0.17496,-7.9806 h 14.79716 14.79715 l 3.2995,3.30744 3.2995,3.30744 3.31479,-3.30744 3.3148,-3.30744 h 16.59892 16.59893 l 0.006,14.75053 0.006,14.75052 0.61382,-1.73871 0.61381,-1.7387 0.9973,-1.96547 0.9973,-1.96546 1.17636,-1.65583 1.17636,-1.65583 1.7752,-1.80003 1.7752,-1.80003 2.07824,-1.40238 2.07823,-1.40238 1.96815,-0.89691 1.96814,-0.89691 1.99352,-0.52215 1.99352,-0.52215 2.29028,-0.30603 2.29029,-0.30603 2.64583,0.14989 2.64583,0.14988 2.11667,0.43752 2.11666,0.43752 2.00494,0.77206 2.00493,0.77205 2.34178,1.38741 2.34178,1.38742 2.42124,2.38125 2.42123,2.38125 1.38502,2.0638 1.38501,2.0638 0.79624,1.77265 0.79624,1.77266 0.66822,2.24896 0.66823,2.24896 0.14246,3.76938 0.14246,3.76939 -0.32867,2.05145 -0.32867,2.05144 -0.65904,2.11667 -0.65903,2.11667 -1.21618,2.32246 -1.21617,2.32246 -1.6496,2.06174 -1.64959,2.06174 -1.80537,1.54514 -1.80537,1.54515 -1.44186,0.92558 -1.44186,0.92558 -2.13002,0.99589 -2.13001,0.99589 -2.11667,0.53619 -2.11666,0.5362 -2.34918,0.28977 -2.34918,0.28976 -2.98396,-0.27768 -2.98396,-0.27768 -2.28265,-0.66149 -2.28265,-0.66149 -1.7284,-0.78369 -1.7284,-0.78369 -1.9006,-1.26063 -1.90061,-1.26063 -2.20347,-2.11156 -2.20347,-2.11157 -1.42961,-2.14857 -1.42961,-2.14857 -0.66375,-1.50086 -0.66375,-1.50085 -0.52295,-1.5198 -0.52295,-1.51979 -0.009,14.21928 -0.009,14.21929 -15.94115,0.0682 -15.94114,0.0682 -0.0814,1.12448 -0.0814,1.12447 h -7.92229 -7.92228 v -1.02989 z m 41.53958,-9.55344 v -2.38125 l -11.70782,0.0104 -11.70781,0.0104 -1.91383,2.17242 -1.91383,2.17243 2.31071,0.14844 2.3107,0.14844 11.31094,0.05 11.31094,0.05 z M 161.2224,158.884 l -2.70863,-2.71788 h -10.52191 -10.52192 v 25.00865 25.00864 l 10.91407,-0.0255 10.91406,-0.0255 2.24896,2.41432 2.24895,2.41432 0.0675,-24.67964 0.0675,-24.67964 -2.70862,-2.71787 z m 26.99129,47.08485 12.75638,0.0712 -6e-5,-24.93698 -7e-5,-24.93698 H 188.4727 175.97546 l -2.84859,2.83976 -2.8486,2.83976 v 24.60579 24.6058 l 2.58952,-2.5798 2.58952,-2.5798 z m 51.25312,1.54158 2.11667,-0.53907 2.38125,-1.17586 2.38125,-1.17585 1.75586,-1.45361 1.75586,-1.45361 1.183,-1.54034 1.18299,-1.54035 0.8083,-1.4552 0.8083,-1.45521 0.68224,-2.18897 0.68225,-2.18897 0.23369,-2.54218 0.23369,-2.54218 -0.23699,-2.11825 -0.23698,-2.11825 -0.67235,-2.01414 -0.67234,-2.01414 -0.81446,-1.45521 -0.81447,-1.45521 -1.21357,-1.54832 -1.21358,-1.54832 -1.89493,-1.52439 -1.89493,-1.5244 -1.46178,-0.83634 -1.46178,-0.83635 -1.54401,-0.53999 -1.54401,-0.53998 -1.9415,-0.3796 -1.94151,-0.3796 -2.02724,0.002 -2.02725,0.002 -1.71979,0.27587 -1.71979,0.27586 -2.18578,0.74997 -2.18578,0.74998 -1.5023,0.89039 -1.5023,0.89039 -1.96903,1.85208 -1.96904,1.85209 -1.04648,1.5405 -1.04647,1.5405 -0.76483,1.6345 -0.76484,1.6345 -0.55586,2.11666 -0.55587,2.11667 -0.009,3.04271 -0.009,3.04271 0.54467,2.27457 0.54466,2.27458 0.67293,1.52161 0.67293,1.52162 1.19414,1.79624 1.19414,1.79625 1.72679,1.61532 1.72679,1.61533 2.04312,1.19938 2.04312,1.19937 2.11667,0.67205 2.11667,0.67204 1.4552,0.23324 1.45521,0.23323 2.64584,-0.10562 2.64583,-0.10562 2.11667,-0.53908 z m -9.13795,-8.87914 -0.01,-0.26413 -5.87714,-6.02834 -5.87715,-6.02835 2.25328,-2.23898 2.25329,-2.23898 3.82955,3.8364 3.82955,3.83639 7.28783,-7.28434 7.28783,-7.28435 2.2234,2.27232 2.22341,2.27232 -9.70709,9.70709 -9.70709,9.70709 -0.01,-0.26414 z"
         style="fill:#f0e6d1;stroke-width:0.26458332" />
      <path
         id="path23"
         d="m 95.955955,371.37502 -2.223363,-0.37259 -2.770166,-0.92695 -2.770166,-0.92696 -2.140564,-1.11365 -2.140566,-1.11364 -1.99403,-1.48727 -1.994029,-1.48726 -1.341171,-1.43042 -1.34117,-1.43043 -1.18962,-1.61633 -1.189619,-1.61633 -1.088141,-2.09154 -1.088141,-2.09154 -0.677879,-2.01937 -0.67788,-2.01937 -0.407435,-2.60713 -0.407435,-2.60714 0.07404,-94.72082 0.07404,-94.72083 0.741513,-2.63653 0.741513,-2.63653 1.034799,-2.2082 1.0348,-2.20821 1.196371,-1.7996 1.196372,-1.7996 1.789815,-1.93634 1.789816,-1.93635 2.116667,-1.58027 2.116666,-1.58027 2.910417,-1.40399 2.910416,-1.40399 2.473817,-0.66003 2.473817,-0.66002 2.553266,-0.28829 2.553265,-0.28829 94.19166,0.0844 94.19166,0.0844 1.85208,0.45573 1.85209,0.45574 1.71979,0.55368 1.71979,0.55368 1.85931,0.85785 1.85932,0.85784 1.97714,1.28529 1.97715,1.28528 2.66175,2.66176 2.66175,2.66175 1.29509,1.98438 1.29509,1.98437 1.03133,2.38125 1.03134,2.38125 0.47475,1.8543 0.47475,1.85429 0.30494,2.51133 0.30494,2.51133 -0.0793,93.92708 -0.0793,93.92708 -0.7094,2.56799 -0.7094,2.568 -1.04311,2.22594 -1.04311,2.22595 -1.13342,1.68835 -1.13342,1.68835 -1.43378,1.65121 -1.43378,1.6512 -2.16258,1.73356 -2.16258,1.73356 -3.175,1.56909 -3.175,1.5691 -1.98438,0.54187 -1.98437,0.54187 -2.38125,0.39018 -2.38125,0.39019 -94.32396,-0.0259 -94.323945,-0.0259 -2.223365,-0.3726 z m 84.905655,-39.9225 v -4.36562 h -11.24479 -11.24479 v -16.7547 -16.7547 l -4.43178,0.0198 -4.43177,0.0198 -0.0677,21.10052 -0.0677,21.10052 h 15.74429 15.74429 v -4.36562 z m 14.02291,-16.80104 v -21.16667 h -4.49791 -4.49792 v 21.16667 21.16667 h 4.49792 4.49791 z m 36.97138,18.19442 2.9807,-2.97225 v -5.29075 -5.29074 l -2.30958,-2.32034 -2.30959,-2.32034 2.30959,-2.32034 2.30958,-2.32034 v -5.28229 -5.28229 l -2.97224,-2.9807 -2.97225,-2.98071 h -13.82879 -13.8288 v 21.16667 21.16667 h 13.82034 13.82034 z m -21.36096,-9.72775 v -3.96875 h 7.22992 7.22992 l 0.57529,0.61236 0.57529,0.61237 v 3.35638 3.35639 h -7.80521 -7.80521 z m 0,-16.80104 v -4.10105 h 7.63466 7.63465 l 0.16867,1.78594 0.16867,1.78594 0.002,1.57302 0.002,1.57302 -0.71096,0.74208 -0.7109,0.74209 h -7.09425 -7.09425 z m -92.33344,-30.29479 3.93839,-4.10105 0.0121,-13.365 0.0121,-13.365 -3.65903,-3.65203 -3.65903,-3.65202 -12.34826,0.0559 -12.348261,0.0559 1.88e-4,21.06217 1.87e-4,21.06218 h 12.056606 12.05661 z m -17.93166,-4.69382 -1.653645,-0.0939 v -12.15821 -12.15821 h 7.540625 7.54062 v 12.30312 12.30313 l -5.88697,-0.051 -5.88698,-0.051 z m 117.62713,6.01523 2.69214,-2.86885 v -15.58706 -15.58705 l -2.53688,-2.68923 -2.53688,-2.68922 h -10.57983 -10.57983 l -2.626,2.43892 -2.626,2.43893 v 16.15515 16.15515 l 1.78594,1.73055 1.78594,1.73056 0.9972,0.83836 0.99721,0.83836 10.26743,-0.0179 10.26743,-0.0179 2.69213,-2.86885 z m -20.32661,-18.25475 v -12.17083 h 7.27604 7.27604 l 0.0294,4.0349 0.0294,4.03489 0.0773,8.13594 0.0773,8.13594 h -7.38276 -7.38275 z m 58.20833,2.7165 v -18.45017 l -2.70725,-2.7165 -2.70726,-2.71649 -10.45576,0.002 -10.45577,0.002 -2.71198,2.53343 -2.71198,2.53344 v 18.4989 18.4989 h 4.23333 4.23334 V 263.45476 246.9183 h 7.40833 7.40833 v 16.66875 16.66875 h 4.23333 4.23334 v -18.45017 z m 34.72656,15.60146 2.84427,-2.83081 v -15.61041 -15.61041 l -2.70725,-2.7165 -2.70726,-2.71649 -11.24951,0.008 -11.24952,0.008 -2.5858,2.43908 -2.58579,2.43908 -0.002,16.12028 -0.002,16.12029 1.00013,1.04142 1.00014,1.04143 1.7989,1.56287 1.7989,1.56287 10.9011,-0.0143 10.9011,-0.0143 2.84427,-2.8308 z m -22.02656,-18.31796 v -12.17083 h 8.33437 8.33438 v 12.17083 12.17084 h -8.33438 -8.33437 z m -116.41666,4.49792 v -16.40417 h 4.10104 4.10104 v 16.40417 16.40417 h 4.36562 4.36563 v -16.53646 -16.53646 h 4.23333 4.23333 v 16.53646 16.53646 h 4.10105 4.10104 l -0.001,-18.05782 -0.001,-18.05781 -2.92267,-2.97656 -2.92267,-2.97656 h -5.36366 -5.36367 l -2.14966,2.20235 -2.14966,2.20235 -2.19675,-2.23065 -2.19675,-2.23065 -5.66916,0.14578 -5.66916,0.14578 -2.73136,2.72206 -2.73146,2.72207 v 18.19482 18.19484 h 4.23333 4.23334 z m -12.17084,-3.43958 v -3.96875 h -7.01146 -7.01145 v 3.96875 3.96875 h 7.01145 7.01146 z m 35.24052,-36.31406 0.0814,-1.12448 15.94114,-0.0682 15.94115,-0.0682 0.009,-14.21929 0.009,-14.21928 0.52295,1.51979 0.52296,1.5198 0.66375,1.50085 0.66375,1.50086 1.42961,2.14857 1.42961,2.14857 2.20347,2.11157 2.20347,2.11156 1.90061,1.26063 1.9006,1.26063 1.7284,0.78369 1.72839,0.78369 2.28266,0.66149 2.28265,0.66149 2.98396,0.27768 2.98396,0.27768 2.34918,-0.28976 2.34917,-0.28977 2.11667,-0.5362 2.11667,-0.53619 2.13001,-0.99589 2.13001,-0.99589 1.44186,-0.92558 1.44187,-0.92558 1.80537,-1.54515 1.80537,-1.54514 1.64959,-2.06174 1.6496,-2.06174 1.21617,-2.32246 1.21618,-2.32246 0.65903,-2.11667 0.65904,-2.11667 0.32867,-2.05144 0.32867,-2.05145 -0.14246,-3.76939 -0.14246,-3.76938 -0.66823,-2.24896 -0.66823,-2.24896 -0.79623,-1.77266 -0.79624,-1.77265 -1.38502,-2.0638 -1.38501,-2.0638 -2.42123,-2.38125 -2.42124,-2.38125 -2.34179,-1.38742 -2.34178,-1.38741 -2.00493,-0.77205 -2.00493,-0.77206 -2.11666,-0.43752 -2.11667,-0.43752 -2.64583,-0.14988 -2.64584,-0.14989 -2.29028,0.30603 -2.29028,0.30603 -1.99353,0.52215 -1.99351,0.52215 -1.96815,0.89691 -1.96814,0.89691 -2.07824,1.40238 -2.07823,1.40238 -1.7752,1.80003 -1.77521,1.80003 -1.17635,1.65583 -1.17637,1.65583 -0.99729,1.96546 -0.9973,1.96547 -0.61382,1.7387 -0.61381,1.73871 -0.006,-14.75052 -0.006,-14.75053 h -16.59893 -16.59892 l -3.3148,3.30744 -3.31479,3.30744 -3.2995,-3.30744 -3.2995,-3.30744 h -14.79715 -14.79716 l 0.17496,7.9806 0.17496,7.9806 v 22.97565 22.97565 h 12.92166 12.92166 l 2.02856,2.22844 2.02856,2.22843 -3.63928,0.0921 -3.63929,0.0921 -13.4276,0.0748 -13.42761,0.0748 5e-5,-30.24273 5e-5,-30.24273 h -3.0425 -3.04249 l -2.6e-4,33.22592 -2.6e-4,33.22592 14.44346,-0.11803 14.44346,-0.11804 4.60654,0.19191 4.60654,0.19191 v 1.02989 1.02989 h 7.92228 7.92229 z m 0.68107,-7.32604 -2.31071,-0.14844 1.91383,-2.17243 1.91383,-2.17242 11.70781,-0.0104 11.70782,-0.0104 v 2.38125 2.38125 l -11.31094,-0.05 -11.31094,-0.05 z m -14.22575,-7.96044 -2.24896,-2.41432 -10.91406,0.0254 -10.91407,0.0255 v -25.00865 -25.00864 h 10.52192 10.52191 l 2.70863,2.71787 2.70862,2.71788 -0.0675,24.67964 -0.0675,24.67963 -2.24895,-2.41431 z m 8.73124,-22.0954 v -24.60579 l 2.8486,-2.83976 2.84859,-2.83976 h 12.49724 12.49724 l 7e-5,24.93698 6e-5,24.93698 -12.75638,-0.0712 -12.75638,-0.0712 -2.58952,2.5798 -2.58952,2.5798 z m 60.325,21.57608 -1.45521,-0.23323 -2.11666,-0.67205 -2.11667,-0.67204 -2.04312,-1.19938 -2.04312,-1.19937 -1.72679,-1.61533 -1.72679,-1.61533 -1.19414,-1.79625 -1.19415,-1.79624 -0.67293,-1.52161 -0.67292,-1.52162 -0.54467,-2.27457 -0.54466,-2.27458 0.009,-3.04271 0.009,-3.04271 0.55586,-2.11666 0.55587,-2.11667 0.76483,-1.6345 0.76484,-1.6345 1.04647,-1.5405 1.04648,-1.5405 1.96903,-1.85208 1.96904,-1.85208 1.5023,-0.8904 1.5023,-0.89039 2.18578,-0.74997 2.18577,-0.74997 1.7198,-0.27587 1.71979,-0.27586 2.02724,-0.002 2.02725,-0.002 1.9415,0.3796 1.94151,0.3796 1.54401,0.53999 1.544,0.53998 1.46179,0.83635 1.46178,0.83635 1.89493,1.52439 1.89493,1.52439 1.21357,1.54832 1.21358,1.54832 0.81446,1.45521 0.81446,1.45521 0.67235,2.01414 0.67234,2.01414 0.23699,2.11825 0.23699,2.11825 -0.23369,2.54218 -0.23369,2.54218 -0.68225,2.18897 -0.68225,2.18897 -0.8083,1.45521 -0.80829,1.45521 -1.183,1.54034 -1.18299,1.54034 -1.75586,1.45362 -1.75586,1.45361 -2.38125,1.17585 -2.38125,1.17585 -2.11667,0.53907 -2.11667,0.53907 -2.64583,0.10563 -2.64583,0.10562 -1.45521,-0.23323 z m 16.92619,-30.81858 -2.2234,-2.27232 -7.28783,7.28435 -7.28783,7.28434 -3.82955,-3.83639 -3.82955,-3.8364 -2.25329,2.23898 -2.25328,2.23898 5.87715,6.02835 5.87714,6.02834 0.01,0.26413 0.01,0.26414 9.70709,-9.70709 9.70709,-9.70709 -2.22341,-2.27232 z"
         style="fill:#00321f;stroke-width:0.26458332" />
    </g>
  </g>
</svg>
